<?xml version="1.0" encoding="utf-8"?>
<!-- Generator: Adobe Illustrator 23.0.2, SVG Export Plug-In . SVG Version: 6.00 Build 0)  -->
<svg version="1.1" id="Layer_1" xmlns="http://www.w3.org/2000/svg" xmlns:xlink="http://www.w3.org/1999/xlink" x="0px" y="0px"
	 viewBox="0 0 1920 1080" style="enable-background:new 0 0 1920 1080;" xml:space="preserve">
<style type="text/css">
	.st0{fill:#848484;}
	.st1{fill-rule:evenodd;clip-rule:evenodd;fill:#D8DBDD;}
	.st2{clip-path:url(#SVGID_2_);fill:#9A9A9A;}
	.st3{clip-path:url(#SVGID_2_);fill:#CCCCCC;}
	.st4{clip-path:url(#SVGID_2_);fill:#EEEEEE;}
	.st5{clip-path:url(#SVGID_4_);fill:#EEEEEE;}
	.st6{clip-path:url(#SVGID_4_);}
	.st7{fill:#9A9A9A;}
	.st8{fill:#CCCCCC;}
	.st9{fill:#FFFFFF;}
	.st10{fill:#FBFBFB;}
	.st11{fill:#333333;}
	.st12{fill:none;}
	.st13{clip-path:url(#SVGID_6_);fill:#ECECEC;}
	.st14{clip-path:url(#SVGID_6_);}
	.st15{fill:none;stroke:#FFFFFF;stroke-width:4;stroke-miterlimit:10;}
	.st16{fill:#DADBDD;}
	.st17{clip-path:url(#SVGID_8_);fill:#CCCCCC;}
	.st18{clip-path:url(#SVGID_8_);}
	.st19{fill:#ECECEC;}
	.st20{fill-rule:evenodd;clip-rule:evenodd;fill:#EEEEEE;}
	.st21{fill-rule:evenodd;clip-rule:evenodd;fill:#CCCCCC;}
	.st22{fill-rule:evenodd;clip-rule:evenodd;fill:#9A9A9A;}
	.st23{fill:#EEEEEE;}
	.st24{fill-rule:evenodd;clip-rule:evenodd;fill:#6B6B6B;}
	.st25{clip-path:url(#SVGID_10_);fill:#CCCCCC;}
	.st26{clip-path:url(#SVGID_10_);}
	.st27{clip-path:url(#SVGID_10_);fill:#EEEEEE;}
	.st28{clip-path:url(#SVGID_10_);fill:#9A9A9A;}
	.st29{clip-path:url(#SVGID_10_);fill:#6B6B6B;}
	.st30{clip-path:url(#SVGID_12_);fill:#CCCCC9;}
	.st31{clip-path:url(#SVGID_12_);fill:#6B6B6B;}
	.st32{clip-path:url(#SVGID_12_);fill:#9A9A9A;}
	.st33{clip-path:url(#SVGID_14_);fill:#CCCCCC;}
	.st34{clip-path:url(#SVGID_14_);}
</style>
<g>
	<defs>
		<rect id="SVGID_9_" width="1920" height="1080"/>
	</defs>
	<clipPath id="SVGID_2_">
		<use xlink:href="#SVGID_9_"  style="overflow:visible;"/>
	</clipPath>
	<rect class="st3" width="1920" height="1080"/>
	<g style="clip-path:url(#SVGID_2_);">
		<g>
			<g>
				<path class="st23" d="M1658.8,702.9h-91.2c-11.2,1.8-22.1,4.3-32.7,7.5h156.7C1680.8,707.3,1669.9,704.8,1658.8,702.9z"/>
				<path class="st23" d="M1752.6,736.9h-278.9c-4.1,2.4-8.2,4.9-12.1,7.5h303.2C1760.8,741.8,1756.7,739.3,1752.6,736.9z"/>
				<path class="st23" d="M1798.8,770.8h-371.3c-2.7,2.4-5.4,5-8,7.5h387.3C1804.2,775.6,1801.5,773.1,1798.8,770.8z"/>
				<path class="st23" d="M1830.5,804.6h-434.6c-2,2.5-3.9,5-5.7,7.5h446.1C1834.3,809.6,1832.4,807.1,1830.5,804.6z"/>
				<path class="st23" d="M1853.4,838.5H1373c-1.4,2.5-2.8,5-4.1,7.5h488.7C1856.2,843.6,1854.8,841,1853.4,838.5z"/>
				<path class="st23" d="M1869.8,872.5h-513.2c-1,2.5-2,5-2.9,7.5h519C1871.7,877.5,1870.8,875,1869.8,872.5z"/>
				<path class="st23" d="M1880.9,906.5h-535.5c-0.6,2.5-1.2,5-1.8,7.5h539.1C1882.2,911.5,1881.5,909,1880.9,906.5z"/>
				<path class="st23" d="M1887.4,940.4H1339c-0.3,2.5-0.6,5-0.9,7.5h550.2C1888,945.4,1887.7,942.9,1887.4,940.4z"/>
				<path class="st23" d="M1889.6,974.3h-552.8c0,0.4,0,0.8,0,1.2c0,2.1,0,4.2,0.1,6.3h552.7c0.1-2.1,0.1-4.2,0.1-6.3
					C1889.6,975.1,1889.6,974.8,1889.6,974.3z"/>
				<path class="st23" d="M1339.6,1015.8h547.1c0.4-2.5,0.7-5,1-7.5h-549C1338.9,1010.8,1339.2,1013.3,1339.6,1015.8z"/>
				<path class="st23" d="M1346.8,1049.6h532.8c0.7-2.5,1.4-5,2-7.5h-536.8C1345.4,1044.6,1346.1,1047.1,1346.8,1049.6z"/>
				<path class="st23" d="M1358.6,1083.6h509.1c1.1-2.5,2.1-5,3.1-7.5h-515.2C1356.5,1078.5,1357.6,1081.1,1358.6,1083.6z"/>
			</g>
		</g>
	</g>
	<path class="st2" d="M1295.9,165.7c0,0-170.6,184.2-366.3,192c-195.8,7.8-240.3,176.5-164.8,300.6s490.4,436.3,943.9,209.4
		s158.9-870.7-21.3-928.9S1425.8,29.9,1295.9,165.7z"/>
	<path class="st4" d="M1409.8,854.5c-124.1,0-252.4-32.5-370.9-94l1.9-3.7c82.3,42.7,213,93.6,369,93.6c114,0,225.7-27,332.1-80.2
		c76.1-38.1,135.2-90.2,175.4-154.9l3.6,2.2c-40.7,65.3-100.3,118-177.1,156.4C1636.8,827.4,1524.4,854.5,1409.8,854.5z
		 M877.7,652.4c-36.3-31.4-64.9-62.9-80.6-88.7C774.2,526,762,484.4,762,443.2c0-80.9,52.8-177.5,201.5-183.4
		c192.6-7.6,363.2-189.5,364.9-191.3c0.2-0.2,0.4-0.5,0.7-0.7l3,2.9l-0.5,0.6c-1.7,1.9-173.4,185-367.8,192.7
		C818,269.9,766.3,364.3,766.3,443.3c0,40.3,11.9,81.2,34.4,118.2c15.5,25.4,43.8,56.6,79.8,87.7L877.7,652.4z M1982.1,434.2
		l-4.1-0.5c2.1-19.4,3.2-39.5,3.2-59.8c0-110-32.6-234.8-89.5-342.4c-51.6-97.7-117.1-169.2-170.8-186.5
		c-26.4-8.5-51.8-12.8-75.5-12.8c-78.8,0-136.8,48-183,94.9l-3-2.9c46.9-47.6,105.6-96.2,186-96.2c24.2,0,50,4.4,76.8,13
		c116,37.4,263.2,295.9,263.2,532.9C1985.4,394.4,1984.3,414.7,1982.1,434.2z"/>
	<path style="clip-path:url(#SVGID_2_);fill:#6B6B6B;" d="M923.1,133.2c2.4,4.1,4.6,8.3,6.6,12.6c23.8,51.1,215.3,434.7,680.6,618.7
		c0,0,208.7,79.7,161.3,208.7c-47.2,128.3-720.7,406.6-1023.2-86c-3.8-6.2-7.2-12.7-10.1-19.4c-30.5-70.1-192.8-475.1,2.8-733.1
		c15.8-20.8,36.2-38.1,60.4-48C836.2,72.7,884.9,69.5,923.1,133.2z"/>
	<g style="clip-path:url(#SVGID_2_);">
		<g>
			<path class="st23" d="M1696.8-10.3c10.9,0,16.7,6.6,21.9,12.3c4.7,5.3,8.4,9.4,15.5,9.5c6.5,0,9.5-3.5,13.8-9.1
				s9.6-12.5,20.7-12.5c10.9,0,16.7,6.6,21.9,12.3c4.7,5.3,8.4,9.4,15.4,9.5c6.5,0,9.4-3.4,13.8-9.1c4.2-5.6,9.5-12.5,20.7-12.5
				c10.9,0,16.7,6.6,21.9,12.3c4.7,5.3,8.4,9.4,15.5,9.5c6.5,0,9.5-3.4,13.8-9.1c4.2-5.6,9.5-12.5,20.7-12.5
				c10.9,0,16.7,6.6,21.9,12.3c4.7,5.3,8.4,9.4,15.5,9.5v8.6c-10.9,0-16.7-6.6-21.9-12.3c-4.7-5.3-8.4-9.4-15.4-9.4
				c-6.5,0-9.4,3.4-13.7,9.1c-4.3,5.6-9.6,12.5-20.7,12.5c-10.9,0-16.7-6.6-21.9-12.3c-4.7-5.3-8.4-9.4-15.5-9.4
				c-6.5,0-9.4,3.4-13.8,9.1c-4.3,5.6-9.5,12.5-20.7,12.5c-10.9,0-16.7-6.6-21.9-12.3c-4.7-5.3-8.4-9.4-15.5-9.4
				c-6.5,0-9.5,3.5-13.8,9.1s-9.6,12.5-20.7,12.5c-10.9,0-16.7-6.6-21.9-12.3c-4.7-5.3-8.4-9.4-15.5-9.4L1696.8-10.3z"/>
		</g>
	</g>
	<g style="clip-path:url(#SVGID_2_);">
		<g>
			<path class="st23" d="M648.3,992.1c10.9,0,16.7,6.6,21.9,12.3c4.7,5.3,8.4,9.4,15.5,9.5c6.5,0,9.5-3.5,13.8-9.1
				s9.6-12.5,20.7-12.5c10.9,0,16.7,6.6,21.9,12.3c4.7,5.3,8.4,9.4,15.4,9.5c6.5,0,9.4-3.4,13.8-9.1c4.2-5.6,9.5-12.5,20.7-12.5
				c10.9,0,16.7,6.6,21.9,12.3c4.7,5.3,8.4,9.4,15.5,9.5c6.5,0,9.5-3.4,13.8-9.1c4.2-5.6,9.5-12.5,20.7-12.5
				c10.9,0,16.7,6.6,21.9,12.3c4.7,5.3,8.4,9.4,15.5,9.5v8.6c-10.9,0-16.7-6.6-21.9-12.3c-4.7-5.3-8.4-9.4-15.4-9.4
				c-6.5,0-9.4,3.4-13.7,9.1c-4.3,5.6-9.6,12.5-20.7,12.5c-10.9,0-16.7-6.6-21.9-12.3c-4.7-5.3-8.4-9.4-15.5-9.4
				c-6.5,0-9.4,3.4-13.8,9.1c-4.3,5.6-9.5,12.5-20.7,12.5c-10.9,0-16.7-6.6-21.9-12.3c-4.7-5.3-8.4-9.4-15.5-9.4
				c-6.5,0-9.5,3.5-13.8,9.1s-9.6,12.5-20.7,12.5c-10.9,0-16.7-6.6-21.9-12.3c-4.7-5.3-8.4-9.4-15.5-9.4L648.3,992.1z"/>
		</g>
	</g>
	<path class="st4" d="M345.5,46.5c27.5,0,49.7,22.2,49.7,49.7S372.8,146,345.5,146c-27.3,0-49.7-22.2-49.7-49.7
		C295.8,69,318.1,46.5,345.5,46.5z M345.5,132.7c20.1,0,36.5-16.4,36.5-36.5c0-20.1-16.4-36.5-36.5-36.5
		c-20.1,0-36.5,16.4-36.5,36.5S325.5,132.7,345.5,132.7z"/>
	<g style="clip-path:url(#SVGID_2_);">
		<g>
			<path class="st23" d="M493.3,936.7c-21.3,0-32.6-12.9-42.7-24c-9.2-10.3-16.4-18.3-30.2-18.5c-12.7,0-18.5,6.8-26.9,17.7
				s-18.7,24.4-40.4,24.4c-21.3,0-32.6-12.9-42.7-24c-9.2-10.3-16.4-18.3-30-18.5c-12.7,0-18.3,6.6-26.9,17.7
				c-8.2,10.9-18.5,24.4-40.4,24.4c-21.3,0-32.6-12.9-42.7-24c-9.2-10.3-16.4-18.3-30.2-18.5c-12.7,0-18.5,6.6-26.9,17.7
				c-8.2,10.9-18.5,24.4-40.4,24.4c-21.3,0-32.6-12.9-42.7-24C21.1,901.2,13.8,893.2,0,893l0-16.8c21.3,0,32.6,12.9,42.7,24
				c9.2,10.3,16.4,18.3,30,18.3c12.7,0,18.3-6.6,26.7-17.7c8.4-10.9,18.7-24.4,40.4-24.4c21.3,0,32.6,12.9,42.7,24
				c9.2,10.3,16.4,18.3,30.2,18.3c12.7,0,18.3-6.6,26.9-17.7c8.4-10.9,18.5-24.4,40.4-24.4c21.3,0,32.6,12.9,42.7,24
				c9.2,10.3,16.4,18.3,30.2,18.3c12.7,0,18.5-6.8,26.9-17.7s18.7-24.4,40.4-24.4c21.3,0,32.6,12.9,42.7,24
				c9.2,10.3,16.4,18.3,30.2,18.3L493.3,936.7z"/>
		</g>
	</g>
	<g style="clip-path:url(#SVGID_2_);">
		<g>
			<g>
				<path class="st23" d="M698.5,28.3h-91.2c-11.2,1.8-22.1,4.3-32.7,7.5h156.7C720.5,32.7,709.6,30.2,698.5,28.3z"/>
				<path class="st23" d="M792.3,62.3H513.4c-4.1,2.4-8.2,4.9-12.1,7.5h303.2C800.5,67.2,796.4,64.7,792.3,62.3z"/>
				<path class="st23" d="M838.5,96.2H467.2c-2.7,2.4-5.4,5-8,7.5h387.3C843.9,101.1,841.2,98.6,838.5,96.2z"/>
				<path class="st23" d="M870.2,130.1H435.6c-2,2.5-3.9,5-5.7,7.5H876C874,135.1,872.1,132.6,870.2,130.1z"/>
				<path class="st23" d="M893.1,164H412.7c-1.4,2.5-2.8,5-4.1,7.5h488.7C895.9,169.1,894.5,166.5,893.1,164z"/>
				<path class="st23" d="M909.5,198H396.3c-1,2.5-2,5-2.9,7.5h519C911.4,203,910.5,200.5,909.5,198z"/>
				<path class="st23" d="M920.6,231.9H385.1c-0.6,2.5-1.2,5-1.8,7.5h539.1C921.9,236.9,921.2,234.4,920.6,231.9z"/>
				<path class="st23" d="M927.1,265.8H378.7c-0.3,2.5-0.6,5-0.9,7.5H928C927.7,270.8,927.4,268.3,927.1,265.8z"/>
				<path class="st23" d="M929.3,299.7H376.5c0,0.4,0,0.8,0,1.2c0,2.1,0,4.2,0.1,6.3h552.7c0.1-2.1,0.1-4.2,0.1-6.3
					C929.3,300.6,929.3,300.2,929.3,299.7z"/>
				<path class="st23" d="M379.3,341.2h547.1c0.4-2.5,0.7-5,1-7.5h-549C378.6,336.2,378.9,338.7,379.3,341.2z"/>
				<path class="st23" d="M386.5,375.1h532.8c0.7-2.5,1.4-5,2-7.5H384.5C385.1,370.1,385.8,372.6,386.5,375.1z"/>
				<path class="st23" d="M398.3,409.1h509.1c1.1-2.5,2.1-5,3.1-7.5H395.3C396.2,404,397.3,406.6,398.3,409.1z"/>
				<path class="st23" d="M415.6,443H890c1.5-2.5,3-5,4.4-7.5H411.2C412.7,438,414.1,440.5,415.6,443z"/>
				<path class="st23" d="M439.6,476.9h426.5c2-2.5,4-5,6-7.5H433.6C435.6,471.9,437.6,474.4,439.6,476.9z"/>
				<path class="st23" d="M472.9,510.8h359.9c2.9-2.4,5.6-5,8.4-7.5H464.5C467.3,505.9,470,508.4,472.9,510.8z"/>
				<path class="st23" d="M522.4,544.8h260.9c4.5-2.4,8.9-4.9,13.2-7.5H509.2C513.5,539.8,517.9,542.4,522.4,544.8z"/>
				<path class="st23" d="M652.9,577.4c20.2,0,39.9-2.2,58.9-6.3H594.1C613,575.3,632.6,577.4,652.9,577.4z"/>
			</g>
		</g>
	</g>
</g>
</svg>
